<svg width="305" height="128" viewBox="0 0 305 128" fill="none" xmlns="http://www.w3.org/2000/svg">
<path fill-rule="evenodd" clip-rule="evenodd" d="M129 40C129 36.134 125.866 33 122 33H21C17.134 33 14 36.134 14 40V96H129V40Z" fill="#BADFF4"/>
<path d="M14 106C14 109.866 17.134 113 21 113H60.5H83.5H122C125.866 113 129 109.866 129 106V96H14V106Z" fill="#BADFF4"/>
<path d="M14 106C14 109.866 17.134 113 21 113H60.5H83.5H122C125.866 113 129 109.866 129 106V96H14V106Z" fill="#E9F0F8"/>
<path d="M83.5 113H60.5V120.003C60.5 120.334 60.4779 120.666 60.425 120.993C59.9082 124.19 58.9937 126.027 58 126C59.7927 125.998 69.59 125.999 76.5037 125.999C80.3701 126 83.5 122.865 83.5 118.999V113Z" fill="#E9F0F8"/>
<path d="M14 96V106C14 109.866 17.134 113 21 113H60.5M14 96V40C14 36.134 17.134 33 21 33H122C125.866 33 129 36.134 129 40V96M14 96H129M129 96V106C129 109.866 125.866 113 122 113H83.5M60.5 113H83.5M60.5 113V120.003C60.5 120.334 60.4779 120.666 60.425 120.993C59.9082 124.19 58.9937 126.027 58 126C59.7927 125.998 69.59 125.999 76.5037 125.999C80.3701 126 83.5 122.865 83.5 118.999V113" stroke="#A5AFC8" stroke-width="2.5"/>
<path d="M51.5893 90.6796C46.1153 91.2537 42.1506 85.5768 44.5744 80.6352L63.29 42.4791C64.3536 40.3105 66.4601 38.8435 68.863 38.598L71.8338 38.2944C77.3248 37.7333 81.2748 43.4513 78.8066 48.3883L59.7155 86.5758C58.6468 88.7134 56.5614 90.1581 54.1845 90.4074L51.5893 90.6796Z" fill="#BADFF4"/>
<path d="M51.5893 90.6796C46.1153 91.2537 42.1506 85.5768 44.5744 80.6352L63.29 42.4791C64.3536 40.3105 66.4601 38.8435 68.863 38.598L71.8338 38.2944C77.3248 37.7333 81.2748 43.4513 78.8066 48.3883L59.7155 86.5758C58.6468 88.7134 56.5614 90.1581 54.1845 90.4074L51.5893 90.6796Z" fill="white" fill-opacity="0.2"/>
<path d="M88.0807 45.5722C86.4828 45.6935 85.0697 46.6548 84.37 48.0966L71.8106 73.9749C70.3459 76.9929 72.7142 80.4604 76.0584 80.1938V80.1938C77.5737 80.073 78.9153 79.1679 79.5947 77.8081L92.4505 52.0757C94.0138 48.9465 91.5687 45.3074 88.0807 45.5722V45.5722Z" fill="#BADFF4"/>
<path d="M88.0807 45.5722C86.4828 45.6935 85.0697 46.6548 84.37 48.0966L71.8106 73.9749C70.3459 76.9929 72.7142 80.4604 76.0584 80.1938V80.1938C77.5737 80.073 78.9153 79.1679 79.5947 77.8081L92.4505 52.0757C94.0138 48.9465 91.5687 45.3074 88.0807 45.5722V45.5722Z" fill="white" fill-opacity="0.2"/>
<circle cx="71.5" cy="104.5" r="3.5" fill="#D1E2EC"/>
<path d="M61.5 115H74" stroke="#C1C7CF" stroke-width="2.5"/>
<circle cx="166" cy="18" r="16.75" fill="#D9D9D9" stroke="#0A3A5E" stroke-width="2.5"/>
<circle cx="166" cy="18" r="16" fill="#D34E5F"/>
<circle cx="166" cy="18" r="12.75" fill="#E6F0F2" stroke="#0E355C" stroke-width="2.5"/>
<circle cx="154" cy="18" r="2" fill="#0E355C"/>
<circle cx="178" cy="18" r="2" fill="#0E355C"/>
<circle cx="166" cy="30" r="2" fill="#0E355C"/>
<path d="M166 10V18L169 20" stroke="#0E355C" stroke-width="2.5" stroke-linecap="round"/>
<circle cx="166" cy="39" r="2" fill="#0E355C"/>
<circle cx="166" cy="46" r="2" fill="#0E355C"/>
<circle cx="166" cy="53" r="2" fill="#0E355C"/>
<path fill-rule="evenodd" clip-rule="evenodd" d="M265 80C267.209 80 269 78.2091 269 76V36H207V76C207 78.2091 208.791 80 211 80H265Z" fill="#AABAC9"/>
<path d="M269 33C269 30.7909 267.209 29 265 29H211C208.791 29 207 30.7909 207 33V36H269V33Z" fill="#E8EFF7"/>
<path d="M207 36V76C207 78.2091 208.791 80 211 80H265C267.209 80 269 78.2091 269 76V36M207 36V33C207 30.7909 208.791 29 211 29H265C267.209 29 269 30.7909 269 33V36M207 36H269M211 32.5H211.5M215.5 32.5H216M220 32.5H220.5" stroke="#A7AFC6" stroke-width="2.5" stroke-linecap="round"/>
<path d="M207 42C207 39.2386 209.239 37 212 37H220.5V79H213C209.686 79 207 76.3137 207 73V42Z" fill="white"/>
<path d="M226.5 42H237M250.5 42H261.5M234 48H252.5M223.5 53.5H237.5M247.5 60.5H262.5M223.5 62.5C224.3 62.5 228.833 62.5 231 62.5M223.5 70H242.5M239.5 75H258.5M220.5 37H212C209.239 37 207 39.2386 207 42V73C207 76.3137 209.686 79 213 79H220.5V37Z" stroke="white" stroke-width="2.5" stroke-linecap="round"/>
<path d="M207 36V76C207 78.2091 208.791 80 211 80H265C267.209 80 269 78.2091 269 76V36M207 36V33C207 30.7909 208.791 29 211 29H265C267.209 29 269 30.7909 269 33V36M207 36H269M211.5 41H218M211.5 46H218M211.5 51.5H218M211.5 57H218" stroke="#A7AFC6" stroke-width="2.5" stroke-linecap="round"/>
<path d="M193.5 58H165H162.5H134M193.5 58V48.5C193.5 40 201 40 202.5 40C204 40 211 40 211.5 48.5V79.5V110.5M193.5 58V105.5V110.5M211.5 110.5C211.5 118.5 206.833 120.5 204.5 120.5M211.5 110.5C211.5 103.5 203.5 103 203 103M203 103V111C203 114.5 201 116 198 116C195.019 116 193.5 114 193.5 110.5M203 103C197 103 193.5 107 193.5 110.5M134 58V48.5C134 40 126.5 40 125 40C123.5 40 116.5 40 116 48.5V79.5V110.5M134 58V105.5V110.5M116 110.5C116 118.5 120.667 120.5 123 120.5M116 110.5C116 103.5 124 103 124.5 103M124.5 103V111C124.5 114.5 126.5 116 129.5 116C132.481 116 134 114 134 110.5M124.5 103C130.5 103 134 107 134 110.5" stroke="#083459" stroke-width="2.5" stroke-linecap="round" stroke-linejoin="round"/>
<path d="M193.5 58H165H162.5H134V105.5V110.5C134 114 132.481 116 129.5 116C126.5 116 124.5 114.5 124.5 111V103C124 103 116 103.5 116 110.5C116 118.5 120.667 120.5 123 120.5H204.5C206.833 120.5 211.5 118.5 211.5 110.5C211.5 103.5 203.5 103 203 103V111C203 114.5 201 116 198 116C195.019 116 193.5 114 193.5 110.5V105.5V58Z" fill="#E8F1F8"/>
<path d="M193.5 48.5V58V105.5V110.5C193.5 107 197 103 203 103C203.5 103 211.5 103.5 211.5 110.5V79.5V48.5C211 40 204 40 202.5 40C201 40 193.5 40 193.5 48.5Z" fill="#E8F1F8"/>
<path d="M203 111V103C197 103 193.5 107 193.5 110.5C193.5 114 195.019 116 198 116C201 116 203 114.5 203 111Z" fill="#9D9FAD"/>
<path d="M134 58V48.5C134 40 126.5 40 125 40C123.5 40 116.5 40 116 48.5V79.5V110.5C116 103.5 124 103 124.5 103C130.5 103 134 107 134 110.5V105.5V58Z" fill="#E8F1F8"/>
<path d="M124.5 103V111C124.5 114.5 126.5 116 129.5 116C132.481 116 134 114 134 110.5C134 107 130.5 103 124.5 103Z" fill="#9D9FAD"/>
<path d="M193.5 58H165H162.5H134M193.5 58V48.5C193.5 40 201 40 202.5 40C204 40 211 40 211.5 48.5V79.5V110.5M193.5 58V105.5V110.5M211.5 110.5C211.5 118.5 206.833 120.5 204.5 120.5H123C120.667 120.5 116 118.5 116 110.5M211.5 110.5C211.5 103.5 203.5 103 203 103M203 103V111C203 114.5 201 116 198 116C195.019 116 193.5 114 193.5 110.5M203 103C197 103 193.5 107 193.5 110.5M134 58V48.5C134 40 126.5 40 125 40C123.5 40 116.5 40 116 48.5V79.5V110.5M134 58V105.5V110.5M116 110.5C116 103.5 124 103 124.5 103M124.5 103V111C124.5 114.5 126.5 116 129.5 116C132.481 116 134 114 134 110.5M124.5 103C130.5 103 134 107 134 110.5" stroke="#083459" stroke-width="2.5" stroke-linecap="round" stroke-linejoin="round"/>
<path d="M130 104.5L129.5 42C131 41.6667 132.5 43.5 134 47V58H139.5V113C139.5 115.333 138.1 120 132.5 120H127C126.333 120 125 119.8 125 119C125 118 124.5 116 125 115.5C125.5 115 126 115.5 127 115.5C128 115.5 128.5 116 129 116C129.4 116 130.5 115.667 131 115.5L132.5 114.5L134 111.5C134.4 110.7 134.166 109.833 134 109.5C133.666 108.833 132.9 107.4 132.5 107C132.1 106.6 132 105.833 132 105.5L130 104.5Z" fill="black" fill-opacity="0.09"/>
<path d="M207.5 104V42C208.833 42.5 211.5 44.6 211.5 49V102V110.5L211 115.5L209 117.5C208.833 118 208.3 119 207.5 119C206.7 119 206.167 119.667 206 120C206 120 205.13 119.815 204.5 119.5C203.5 119 202.888 118.396 202.5 117.5C202.19 116.783 202.5 115.5 202.5 115.5V112V103H204.5L207.5 104Z" fill="black" fill-opacity="0.09"/>
<path d="M165.5 65.5H179M183.5 65.5H186.5M177.5 71.5H180.5M165.5 71.5H173M145 91H152M156 91H160" stroke="#B0C8E0" stroke-width="2.5" stroke-linecap="round" stroke-linejoin="round"/>
<path d="M173.5 118C173.5 119.105 174.395 120 175.5 120H180.5C181.605 120 182.5 119.105 182.5 118V113.586H173.5V118Z" fill="#CF1616"/>
<path d="M182.5 84.7241C181 83.6552 177.1 82.1586 173.5 84.7241V113.586H182.5V84.7241Z" fill="#CF1616"/>
<path d="M182.5 84.7241C181 83.6552 177.1 82.1586 173.5 84.7241V113.586H182.5V84.7241Z" fill="#F6B446"/>
<path d="M179.856 78.1302C179.185 76.4559 176.815 76.4559 176.144 78.1302L173.5 84.7241C177.1 82.1586 181 83.6552 182.5 84.7241L179.856 78.1302Z" fill="#E4B59B"/>
<path d="M173.5 84.7241L176.144 78.1302C176.815 76.4559 179.185 76.4559 179.856 78.1302L182.5 84.7241M173.5 84.7241C177.1 82.1586 181 83.6552 182.5 84.7241M173.5 84.7241V113.586M182.5 84.7241V113.586M173.5 113.586V118C173.5 119.105 174.395 120 175.5 120H180.5C181.605 120 182.5 119.105 182.5 118V113.586M173.5 113.586H182.5" stroke="#083459" stroke-width="2.5" stroke-linecap="round" stroke-linejoin="round"/>
<path d="M178 118V78.3103C178 78.0151 178.239 77.7758 178.534 77.7758H179.163C179.663 77.7758 180.107 78.0957 180.265 78.5701L182.397 84.9501C182.465 85.1544 182.5 85.3684 182.5 85.5839V118C182.5 119.105 181.605 120 180.5 120H180C178.895 120 178 119.105 178 118Z" fill="black" fill-opacity="0.13"/>
<path d="M173.5 84.7241L178 73C178 73 180.743 80.3408 182.5 84.7241M173.5 84.7241C177.1 82.1586 181 83.6552 182.5 84.7241M173.5 84.7241V113.586M182.5 84.7241C182.5 95.9955 182.5 113.586 182.5 113.586M173.5 113.586V120H182.5V113.586M173.5 113.586H182.5" stroke="#083459" stroke-width="2.5" stroke-linecap="round" stroke-linejoin="round"/>
<path fill-rule="evenodd" clip-rule="evenodd" d="M152.5 113.5C156.918 113.5 160.5 109.918 160.5 105.5H152.5V97.5C148.082 97.5 144.5 101.082 144.5 105.5C144.5 109.918 148.082 113.5 152.5 113.5Z" fill="#F6B446"/>
<path d="M161.5 104.5C161.5 100.082 157.918 96.5 153.5 96.5V104.5H161.5Z" fill="#EE751A"/>
<path d="M145.5 84.5V83.5M151.5 84.5V83.5M157.5 84.5V83.5" stroke="#EA4549" stroke-width="2.5"/>
<path d="M145 65.5V80.5M151 74.5V80.5M157 68.5V80.5" stroke="#EA4549" stroke-width="2.5"/>
<path d="M102 86C102 84.3431 100.657 83 99 83H81C79.3431 83 78 84.3431 78 86V89H90H102V86Z" fill="#60859F"/>
<path d="M78 122C78 123.657 79.3431 125 81 125H99C100.657 125 102 123.657 102 122V115.5H90H78V122Z" fill="#60859F"/>
<path d="M102 89H90H78V115.5H90H102V89Z" fill="#60859F"/>
<path d="M102 89H90H78V115.5H90H102V89Z" fill="black" fill-opacity="0.2"/>
<path d="M102 89V86C102 84.3431 100.657 83 99 83H81C79.3431 83 78 84.3431 78 86V89M102 89V115.5M102 89H90H78M78 89V115.5M102 115.5V122C102 123.657 100.657 125 99 125H81C79.3431 125 78 123.657 78 122V115.5M102 115.5H90H78" stroke="#0E3959" stroke-width="2.5"/>
<circle cx="90" cy="121" r="2" fill="#0E3959"/>
<path d="M51.5 90H34.5C33.9579 90 33.5281 90.4571 33.5614 90.9981L35.0957 115.93C35.3229 119.622 38.3834 122.5 42.0825 122.5H50.4207C50.8062 122.5 51.1914 122.548 51.5769 122.539C52.6177 122.516 54 121.995 54 120L54.9779 95.5517C54.9926 95.1845 55.0443 94.8202 55.0803 94.4545C55.2529 92.6995 54.7397 90 51.5 90Z" fill="#D9D9D9" fill-opacity="0.22"/>
<path d="M32.5 85.5001H62.5M32.5 85.5001V85.5001C31.6716 85.5001 31 84.8285 31 84.0001V82.5001C31 78.9001 35.5 79 38 79.0001M32.5 85.5001L33.5 98.8334M62.5 85.5001V85.5001C63.3284 85.5 64 84.8284 64 84V82.5C64 78.9 59.5 79 57 79M62.5 85.5001L61.5 98.8334M38 79.0001C38 74.6001 40.5 74.5 42 74.5001L46.5 74.5H53C54.5 74.5 57 74.6 57 79M38 79.0001L46.5 79L57 79M33.5 98.8334H61.5M33.5 98.8334L34.4125 111M61.5 98.8334L60.5875 111M34.4125 111L35.0143 119.024C35.2882 122.676 38.3318 125.5 41.9947 125.5H53.0053C56.6682 125.5 59.7118 122.676 59.9857 119.024L60.5875 111M34.4125 111H60.5875" stroke="#0E3959" stroke-width="2.5"/>
<path d="M62.5 85.5001H32.5L33.5 98.8334H61.5L62.5 85.5001Z" fill="#E4B59B"/>
<path d="M35.0143 119.024C35.2882 122.676 38.3318 125.5 41.9947 125.5H53.0053C56.6682 125.5 59.7118 122.676 59.9857 119.024L60.5875 111H34.4125L35.0143 119.024Z" fill="#E4B59B"/>
<path d="M61.5 98.8334H33.5L34.4125 111H60.5875L61.5 98.8334Z" fill="#E4B59B"/>
<path d="M61.5 98.8334H33.5L34.4125 111H60.5875L61.5 98.8334Z" fill="#3589C9"/>
<path d="M32.5 85.5001H62.5V85.5001C63.3284 85.5 64 84.8284 64 84V82.5C64 78.9 59.5 79 57 79L46.5 79L38 79.0001C35.5 79 31 78.9001 31 82.5001V84.0001C31 84.8285 31.6716 85.5001 32.5 85.5001V85.5001Z" fill="#EEF7FE"/>
<path d="M42 74.5001C40.5 74.5 38 74.6001 38 79.0001L46.5 79L57 79C57 74.6 54.5 74.5 53 74.5H46.5L42 74.5001Z" fill="#EEF7FE"/>
<path d="M32.5 85.5001H62.5M32.5 85.5001V85.5001C31.6716 85.5001 31 84.8285 31 84.0001V82.5001C31 78.9001 35.5 79 38 79.0001M32.5 85.5001L33.5 98.8334M62.5 85.5001V85.5001C63.3284 85.5 64 84.8284 64 84V82.5C64 78.9 59.5 79 57 79M62.5 85.5001L61.5 98.8334M38 79.0001C38 74.6001 40.5 74.5 42 74.5001L46.5 74.5H53C54.5 74.5 57 74.6 57 79M38 79.0001L46.5 79L57 79M33.5 98.8334H61.5M33.5 98.8334L34.4125 111M61.5 98.8334L60.5875 111M34.4125 111L35.0143 119.024C35.2882 122.676 38.3318 125.5 41.9947 125.5H53.0053C56.6682 125.5 59.7118 122.676 59.9857 119.024L60.5875 111M34.4125 111H60.5875" stroke="#0E3959" stroke-width="2.5"/>
<path d="M47.4893 47V47.5M47.4893 71C47.4893 71 47.4893 68.5 47.4893 64C47.4893 59.5 40.9893 59.5 40.9893 53.5M53.9893 59.5V59M53.9893 71V64M40.9893 71V64M47.4893 56.5V51" stroke="#F5FFFF" stroke-width="2.5" stroke-linecap="round"/>
<path fill-rule="evenodd" clip-rule="evenodd" d="M62 44C63.1046 44 64 43.1046 64 42V19.1605H29V42C29 43.1046 29.8954 44 31 44H62Z" fill="#F0F0F0"/>
<path d="M64 15.199C64 14.0944 63.1046 13.199 62 13.199H55.25H46.5H37.75H31C29.8954 13.199 29 14.0944 29 15.199V19.1605H64V15.199Z" fill="#FF0000"/>
<path d="M64 19.1605V15.199C64 14.0944 63.1046 13.199 62 13.199H55.25M64 19.1605V42C64 43.1046 63.1046 44 62 44H31C29.8954 44 29 43.1046 29 42V19.1605M64 19.1605H29M29 19.1605V15.199C29 14.0944 29.8954 13.199 31 13.199H37.75M55.25 13.199H46.5H37.75M55.25 13.199H37.75M55.25 13.199V10.2182M37.75 13.199V10.2182M37.75 10.2182V15.6829M37.75 10.2182V10M55.25 10.2182V15.6829M55.25 10.2182V10" stroke="#0E3959" stroke-width="2.5" stroke-linecap="round"/>
<circle cx="37.5" cy="26.5" r="2.5" fill="#98B6D2"/>
<circle cx="46.5" cy="26.5" r="2.5" fill="#98B6D2"/>
<circle cx="55.5" cy="26.5" r="2.5" fill="#98B6D2"/>
<circle cx="37.5" cy="35.5" r="2.5" fill="#98B6D2"/>
<circle cx="46.5" cy="35.5" r="2.5" fill="#98B6D2"/>
<circle cx="55.5" cy="35.5" r="2.5" fill="#98B6D2"/>
<rect x="203.25" y="87.25" width="29.5" height="37.5" rx="1.75" fill="#65859E" stroke="#103C5D" stroke-width="2.5"/>
<rect x="208.25" y="92.25" width="19.5" height="9.5" rx="1.75" fill="#86C763" stroke="#103C5D" stroke-width="2.5"/>
<circle cx="210.5" cy="110.5" r="2.5" fill="#D9D9D9"/>
<circle cx="218.5" cy="110.5" r="2.5" fill="#D9D9D9"/>
<path d="M229 114.5C229 121 229 121 226.5 121C224 121 224 121 224 114.5C224 108 224 108 226.5 108C229 108 229 108 229 114.5Z" fill="#F34648"/>
<circle cx="210.5" cy="118.5" r="2.5" fill="#D9D9D9"/>
<circle cx="218.5" cy="118.5" r="2.5" fill="#FFD15C"/>
<path d="M209.5 94H227M204 124H218H232V88.5" stroke="black" stroke-opacity="0.25" stroke-width="2.5" stroke-linecap="round"/>
<rect x="203.25" y="87.25" width="29.5" height="37.5" rx="1.75" stroke="#103C5D" stroke-width="2.5"/>
<rect x="208.25" y="92.25" width="19.5" height="9.5" rx="1.75" stroke="#103C5D" stroke-width="2.5"/>
<path d="M287.5 113V59H275.5L283.5 68.5V113H287.5Z" fill="#D4E2EB"/>
<path fill-rule="evenodd" clip-rule="evenodd" d="M245 62C245 60.3431 246.343 59 248 59H258.5H263H275.5L283.5 68.5V113H248C246.343 113 245 111.657 245 110V62Z" fill="#E9F1F4"/>
<path d="M289 113C290.657 113 292 111.657 292 110V62C292 60.3431 290.657 59 289 59H287.5V113H289Z" fill="#B0CEE8"/>
<path d="M287.5 59H289C290.657 59 292 60.3431 292 62V110C292 111.657 290.657 113 289 113H287.5M287.5 59V113M287.5 59H275.5M287.5 113H283.5M283.5 113H248C246.343 113 245 111.657 245 110V62C245 60.3431 246.343 59 248 59H258.5M283.5 113V68.5M283.5 68.5L275.5 59M283.5 68.5H278.5C276.843 68.5 275.5 67.1569 275.5 65.5V59M275.5 59H263M263 59V55.25C263 54.0074 261.993 53 260.75 53V53C259.507 53 258.5 54.0074 258.5 55.25V59M263 59H258.5M258.5 59V68.75C258.5 69.9926 259.507 71 260.75 71V71C261.993 71 263 69.9926 263 68.75V67" stroke="#083459" stroke-width="2.5" stroke-linecap="round"/>
<path d="M252 87H261M266 87H271.5M252 93H265.5M270.5 93H275M252 81H265.5M270.5 81H279M252 99H270" stroke="#556F7C" stroke-width="2.5" stroke-linecap="round"/>
<circle cx="274" cy="103" r="5" fill="#F7604B"/>
<path d="M276.5 103C276.5 104.381 275.381 105.5 274 105.5C272.619 105.5 271.5 104.381 271.5 103C271.5 101.619 272.619 100.5 274 100.5C275.381 100.5 276.5 101.619 276.5 103Z" fill="#F7604B" stroke="#E9F1F4"/>
<path d="M90.5 92C86.9163 92 83.7892 95.0961 84.0111 98.2222C84.0986 99.455 84.5099 100.167 85.3016 101.22C87.2285 103.782 87.743 105.214 87.9715 108.534H91.8546C91.8546 104.056 95.4914 100.167 95.4914 98.2222C95.4914 96.6667 94.8925 92.9333 90.5 92Z" fill="#F6B446"/>
<path d="M96.9889 98.2222C97.2108 95.0961 94.0837 92 90.5 92C94.8925 92.9333 95.4914 96.6667 95.4914 98.2222C95.4914 100.167 91.8546 104.056 91.8546 108.534H93.0285C93.257 105.214 93.7729 103.783 95.6984 101.22C96.4893 100.167 96.9014 99.455 96.9889 98.2222Z" fill="#F6B446"/>
<path d="M96.9889 98.2222C97.2108 95.0961 94.0837 92 90.5 92C94.8925 92.9333 95.4914 96.6667 95.4914 98.2222C95.4914 100.167 91.8546 104.056 91.8546 108.534H93.0285C93.257 105.214 93.7729 103.783 95.6984 101.22C96.4893 100.167 96.9014 99.455 96.9889 98.2222Z" fill="black" fill-opacity="0.2"/>
<path fill-rule="evenodd" clip-rule="evenodd" d="M91.8546 110.278H88.0043V109.5C88.0043 109.168 87.9929 108.847 87.9715 108.534H91.8546V110.278Z" fill="#0E355C"/>
<path fill-rule="evenodd" clip-rule="evenodd" d="M91.8546 113H91.5H89.5H89.0026C88.4512 113 88.0043 112.652 88.0043 112.222V110.278H91.8546V113Z" fill="#E9F1F4"/>
<path d="M92.9957 109.5C92.9957 109.168 93.0071 108.847 93.0285 108.534H91.8546V110.278H92.9957V109.5Z" fill="#0E355C"/>
<path d="M92.9957 109.5C92.9957 109.168 93.0071 108.847 93.0285 108.534H91.8546V110.278H92.9957V109.5Z" fill="black" fill-opacity="0.2"/>
<path d="M91.9974 113C92.5488 113 92.9957 112.652 92.9957 112.222V110.278H91.8546V113H91.9974Z" fill="#E9F1F4"/>
<path d="M91.9974 113C92.5488 113 92.9957 112.652 92.9957 112.222V110.278H91.8546V113H91.9974Z" fill="black" fill-opacity="0.2"/>
<path d="M91.5 113H89.5V113C89.5 113.276 89.7239 113.5 90 113.5H91C91.2761 113.5 91.5 113.276 91.5 113V113Z" fill="#0E3959"/>
<path d="M2 126H3.0273M8.16382 126H16.3823M22.5461 126H282.712M288.618 126H296.836M302.486 126H303" stroke="#083459" stroke-width="2.5" stroke-linecap="round" stroke-linejoin="round"/>
</svg>
