<svg width="262" height="183" viewBox="0 0 262 183" fill="none" xmlns="http://www.w3.org/2000/svg">
<path fill-rule="evenodd" clip-rule="evenodd" d="M151.001 82H36.001V145H151.001V82Z" fill="#BADFF4"/>
<path d="M36.001 162H82.501H105.501H151.001V145H36.001V162Z" fill="#BADFF4"/>
<path d="M36.001 162H82.501H105.501H151.001V145H36.001V162Z" fill="#E9F0F8"/>
<path d="M105.501 162H98.501H89.0005H82.501V169.5C82.001 173 81.0446 175.028 80.001 175C81.4285 174.998 87.9311 174.998 94.012 174.999C100.025 174.998 106.444 174.998 107.956 175C106.98 174.971 106.085 173.142 105.576 169.993C105.523 169.666 105.501 169.334 105.501 169.002V162Z" fill="#E9F0F8"/>
<path d="M36.001 145V162H82.501M36.001 145V82H151.001V145M36.001 145H151.001M151.001 145V162H105.501M82.501 162H105.501M82.501 162V169.5C82.001 173 81.0446 175.028 80.001 175C81.4285 174.998 87.9311 174.998 94.012 174.999M82.501 162H89.0005H98.501H105.501M105.501 162V169.002C105.501 169.334 105.523 169.666 105.576 169.993C106.085 173.142 106.98 174.971 107.956 175M105.501 175C105.501 175 99.9581 174.999 94.012 174.999M108.001 175C107.986 175 107.971 175 107.956 175M88.9981 174.999C90.5478 174.999 92.2627 174.999 94.012 174.999M94.012 174.999C100.025 174.998 106.444 174.998 107.956 175" stroke="#A5AFC8" stroke-width="2.5"/>
<path d="M73.5903 139.68C68.1162 140.254 64.1516 134.577 66.5754 129.635L85.2909 91.4791C86.3546 89.3105 88.4611 87.8435 90.864 87.598L93.8348 87.2944C99.3258 86.7333 103.276 92.4513 100.808 97.3883L81.7165 135.576C80.6478 137.713 78.5624 139.158 76.1855 139.407L73.5903 139.68Z" fill="#BADFF4"/>
<path d="M73.5903 139.68C68.1162 140.254 64.1516 134.577 66.5754 129.635L85.2909 91.4791C86.3546 89.3105 88.4611 87.8435 90.864 87.598L93.8348 87.2944C99.3258 86.7333 103.276 92.4513 100.808 97.3883L81.7165 135.576C80.6478 137.713 78.5624 139.158 76.1855 139.407L73.5903 139.68Z" fill="white" fill-opacity="0.2"/>
<path d="M110.082 94.5722C108.484 94.6935 107.071 95.6548 106.371 97.0966L93.8116 122.975C92.3468 125.993 94.7152 129.46 98.0594 129.194V129.194C99.5747 129.073 100.916 128.168 101.596 126.808L114.451 101.076C116.015 97.9465 113.57 94.3074 110.082 94.5722V94.5722Z" fill="#BADFF4"/>
<path d="M110.082 94.5722C108.484 94.6935 107.071 95.6548 106.371 97.0966L93.8116 122.975C92.3468 125.993 94.7152 129.46 98.0594 129.194V129.194C99.5747 129.073 100.916 128.168 101.596 126.808L114.451 101.076C116.015 97.9465 113.57 94.3074 110.082 94.5722V94.5722Z" fill="white" fill-opacity="0.2"/>
<circle cx="93.501" cy="153.5" r="3.5" fill="#D1E2EC"/>
<circle cx="209.001" cy="45" r="16.75" fill="#D9D9D9" stroke="#0A3A5E" stroke-width="2.5"/>
<circle cx="209.001" cy="45" r="16" fill="#D34E5F"/>
<circle cx="209.001" cy="45" r="12.75" fill="#E6F0F2" stroke="#0E355C" stroke-width="2.5"/>
<circle cx="197.001" cy="45" r="2" fill="#0E355C"/>
<circle cx="221.001" cy="45" r="2" fill="#0E355C"/>
<circle cx="209.001" cy="57" r="2" fill="#0E355C"/>
<path d="M209.001 37V45L212.001 47" stroke="#0E355C" stroke-width="2.5" stroke-linecap="round"/>
<circle cx="209.001" cy="66" r="2" fill="#0E355C"/>
<circle cx="209.001" cy="73" r="2" fill="#0E355C"/>
<circle cx="209.001" cy="80" r="2" fill="#0E355C"/>
<path fill-rule="evenodd" clip-rule="evenodd" d="M223.001 132C225.21 132 227.001 130.209 227.001 128V88H165.001V128C165.001 130.209 166.792 132 169.001 132H223.001Z" fill="#AABAC9"/>
<path d="M227.001 85C227.001 82.7909 225.21 81 223.001 81H169.001C166.792 81 165.001 82.7909 165.001 85V88H227.001V85Z" fill="#E8EFF7"/>
<path d="M165.001 88V128C165.001 130.209 166.792 132 169.001 132H223.001C225.21 132 227.001 130.209 227.001 128V88M165.001 88V85C165.001 82.7909 166.792 81 169.001 81H223.001C225.21 81 227.001 82.7909 227.001 85V88M165.001 88H227.001M169.001 84.5H169.501M173.501 84.5H174.001M178.001 84.5H178.501" stroke="#A7AFC6" stroke-width="2.5" stroke-linecap="round"/>
<path d="M165.001 94C165.001 91.2386 167.24 89 170.001 89H178.501V131H171.001C167.687 131 165.001 128.314 165.001 125V94Z" fill="white"/>
<path d="M184.501 94H195.001M208.501 94H219.501M192.001 100H210.501M181.501 105.5H195.501M205.501 112.5H220.501M181.501 114.5C182.301 114.5 186.834 114.5 189.001 114.5M181.501 122H200.501M197.501 127H216.501M178.501 89H170.001C167.24 89 165.001 91.2386 165.001 94V125C165.001 128.314 167.687 131 171.001 131H178.501V89Z" stroke="white" stroke-width="2.5" stroke-linecap="round"/>
<path d="M165.001 88V128C165.001 130.209 166.792 132 169.001 132H223.001C225.21 132 227.001 130.209 227.001 128V88M165.001 88V85C165.001 82.7909 166.792 81 169.001 81H223.001C225.21 81 227.001 82.7909 227.001 85V88M165.001 88H227.001M169.501 93H176.001M169.501 98H176.001M169.501 103.5H176.001M169.501 109H176.001" stroke="#A7AFC6" stroke-width="2.5" stroke-linecap="round"/>
<path d="M169.501 47H141.001H138.501H110.001M169.501 47V37.5C169.501 29 177.001 29 178.501 29C180.001 29 187.001 29 187.501 37.5V68.5V99.5M169.501 47V94.5V99.5M187.501 99.5C187.501 107.5 182.834 109.5 180.501 109.5M187.501 99.5C187.501 92.5 179.501 92 179.001 92M179.001 92V100C179.001 103.5 177.001 105 174.001 105C171.02 105 169.501 103 169.501 99.5M179.001 92C173.001 92 169.501 96 169.501 99.5M110.001 47V37.5C110.001 29 102.501 29 101.001 29C99.501 29 92.501 29 92.001 37.5V68.5V99.5M110.001 47V94.5V99.5M92.001 99.5C92.001 107.5 96.6676 109.5 99.001 109.5M92.001 99.5C92.001 92.5 100.001 92 100.501 92M100.501 92V100C100.501 103.5 102.501 105 105.501 105C108.482 105 110.001 103 110.001 99.5M100.501 92C106.501 92 110.001 96 110.001 99.5" stroke="#083459" stroke-width="2.5" stroke-linecap="round" stroke-linejoin="round"/>
<path d="M169.501 47H141.001H138.501H110.001V94.5V99.5C110.001 103 108.482 105 105.501 105C102.501 105 100.501 103.5 100.501 100V92C100.001 92 92.001 92.5 92.001 99.5C92.001 107.5 96.6676 109.5 99.001 109.5H180.501C182.834 109.5 187.501 107.5 187.501 99.5C187.501 92.5 179.501 92 179.001 92V100C179.001 103.5 177.001 105 174.001 105C171.02 105 169.501 103 169.501 99.5V94.5V47Z" fill="#E8F1F8"/>
<path d="M169.501 37.5V47V94.5V99.5C169.501 96 173.001 92 179.001 92C179.501 92 187.501 92.5 187.501 99.5V68.5V37.5C187.001 29 180.001 29 178.501 29C177.001 29 169.501 29 169.501 37.5Z" fill="#E8F1F8"/>
<path d="M179.001 100V92C173.001 92 169.501 96 169.501 99.5C169.501 103 171.02 105 174.001 105C177.001 105 179.001 103.5 179.001 100Z" fill="#9D9FAD"/>
<path d="M110.001 47V37.5C110.001 29 102.501 29 101.001 29C99.501 29 92.501 29 92.001 37.5V68.5V99.5C92.001 92.5 100.001 92 100.501 92C106.501 92 110.001 96 110.001 99.5V94.5V47Z" fill="#E8F1F8"/>
<path d="M100.501 92V100C100.501 103.5 102.501 105 105.501 105C108.482 105 110.001 103 110.001 99.5C110.001 96 106.501 92 100.501 92Z" fill="#9D9FAD"/>
<path d="M169.501 47H141.001H138.501H110.001M169.501 47V37.5C169.501 29 177.001 29 178.501 29C180.001 29 187.001 29 187.501 37.5V68.5V99.5M169.501 47V94.5V99.5M187.501 99.5C187.501 107.5 182.834 109.5 180.501 109.5H99.001C96.6676 109.5 92.001 107.5 92.001 99.5M187.501 99.5C187.501 92.5 179.501 92 179.001 92M179.001 92V100C179.001 103.5 177.001 105 174.001 105C171.02 105 169.501 103 169.501 99.5M179.001 92C173.001 92 169.501 96 169.501 99.5M110.001 47V37.5C110.001 29 102.501 29 101.001 29C99.501 29 92.501 29 92.001 37.5V68.5V99.5M110.001 47V94.5V99.5M92.001 99.5C92.001 92.5 100.001 92 100.501 92M100.501 92V100C100.501 103.5 102.501 105 105.501 105C108.482 105 110.001 103 110.001 99.5M100.501 92C106.501 92 110.001 96 110.001 99.5" stroke="#083459" stroke-width="2.5" stroke-linecap="round" stroke-linejoin="round"/>
<path d="M106.001 93.5L105.501 31C107.001 30.6667 108.501 32.5 110.001 36V47H115.501V102C115.501 104.333 114.101 109 108.501 109H103.001C102.334 109 101.001 108.8 101.001 108C101.001 107 100.501 105 101.001 104.5C101.501 104 102.001 104.5 103.001 104.5C104.001 104.5 104.501 105 105.001 105C105.401 105 106.501 104.667 107.001 104.5L108.501 103.5L110.001 100.5C110.401 99.7 110.167 98.8333 110.001 98.5C109.667 97.8333 108.901 96.4 108.501 96C108.101 95.6 108.001 94.8333 108.001 94.5L106.001 93.5Z" fill="black" fill-opacity="0.09"/>
<path d="M183.501 93V31C184.834 31.5 187.501 33.6 187.501 38V91V99.5L187.001 104.5L185.001 106.5C184.834 107 184.301 108 183.501 108C182.701 108 182.168 108.667 182.001 109C182.001 109 181.131 108.815 180.501 108.5C179.501 108 178.889 107.396 178.501 106.5C178.191 105.783 178.501 104.5 178.501 104.5V101V92H180.501L183.501 93Z" fill="black" fill-opacity="0.09"/>
<path d="M141.501 54.5H155.001M159.501 54.5H162.501M153.501 60.5H156.501M141.501 60.5H149.001M121.001 80H128.001M132.001 80H136.001" stroke="#B0C8E0" stroke-width="2.5" stroke-linecap="round" stroke-linejoin="round"/>
<path d="M149.501 107C149.501 108.105 150.396 109 151.501 109H156.501C157.606 109 158.501 108.105 158.501 107V102.586H149.501V107Z" fill="#CF1616"/>
<path d="M158.501 73.7241C157.001 72.6552 153.101 71.1586 149.501 73.7241V102.586H158.501V73.7241Z" fill="#CF1616"/>
<path d="M158.501 73.7241C157.001 72.6552 153.101 71.1586 149.501 73.7241V102.586H158.501V73.7241Z" fill="#F6B446"/>
<path d="M155.857 67.1302C155.186 65.4559 152.816 65.4559 152.145 67.1302L149.501 73.7241C153.101 71.1586 157.001 72.6552 158.501 73.7241L155.857 67.1302Z" fill="#E4B59B"/>
<path d="M149.501 73.7241L152.145 67.1302C152.816 65.4559 155.186 65.4559 155.857 67.1302L158.501 73.7241M149.501 73.7241C153.101 71.1586 157.001 72.6552 158.501 73.7241M149.501 73.7241V102.586M158.501 73.7241V102.586M149.501 102.586V107C149.501 108.105 150.396 109 151.501 109H156.501C157.606 109 158.501 108.105 158.501 107V102.586M149.501 102.586H158.501" stroke="#083459" stroke-width="2.5" stroke-linecap="round" stroke-linejoin="round"/>
<path d="M154.001 107V67.3103C154.001 67.0151 154.24 66.7758 154.535 66.7758H155.164C155.664 66.7758 156.108 67.0957 156.266 67.5701L158.398 73.9501C158.466 74.1544 158.501 74.3684 158.501 74.5839V107C158.501 108.105 157.606 109 156.501 109H156.001C154.896 109 154.001 108.105 154.001 107Z" fill="black" fill-opacity="0.13"/>
<path d="M149.501 73.7241L154.001 62C154.001 62 156.744 69.3408 158.501 73.7241M149.501 73.7241C153.101 71.1586 157.001 72.6552 158.501 73.7241M149.501 73.7241V102.586M158.501 73.7241C158.501 84.9955 158.501 102.586 158.501 102.586M149.501 102.586V109H158.501V102.586M149.501 102.586H158.501" stroke="#083459" stroke-width="2.5" stroke-linecap="round" stroke-linejoin="round"/>
<path fill-rule="evenodd" clip-rule="evenodd" d="M128.501 102.5C132.919 102.5 136.501 98.9183 136.501 94.5H128.501V86.5C124.083 86.5 120.501 90.0817 120.501 94.5C120.501 98.9183 124.083 102.5 128.501 102.5Z" fill="#F6B446"/>
<path d="M137.501 93.5C137.501 89.0817 133.919 85.5 129.501 85.5V93.5H137.501Z" fill="#EE751A"/>
<path d="M121.501 73.5V72.5M127.501 73.5V72.5M133.501 73.5V72.5" stroke="#EA4549" stroke-width="2.5"/>
<path d="M121.001 54.5V69.5M127.001 63.5V69.5M133.001 57.5V69.5" stroke="#EA4549" stroke-width="2.5"/>
<path d="M225.001 135C225.001 133.343 223.658 132 222.001 132H204.001C202.344 132 201.001 133.343 201.001 135V138H213.001H225.001V135Z" fill="#60859F"/>
<path d="M201.001 171C201.001 172.657 202.344 174 204.001 174H222.001C223.658 174 225.001 172.657 225.001 171V164.5H213.001H201.001V171Z" fill="#60859F"/>
<path d="M225.001 138H213.001H201.001V164.5H213.001H225.001V138Z" fill="#60859F"/>
<path d="M225.001 138H213.001H201.001V164.5H213.001H225.001V138Z" fill="black" fill-opacity="0.2"/>
<path d="M225.001 138V135C225.001 133.343 223.658 132 222.001 132H204.001C202.344 132 201.001 133.343 201.001 135V138M225.001 138V164.5M225.001 138H213.001H201.001M201.001 138V164.5M225.001 164.5V171C225.001 172.657 223.658 174 222.001 174H204.001C202.344 174 201.001 172.657 201.001 171V164.5M225.001 164.5H213.001H201.001" stroke="#0E3959" stroke-width="2.5"/>
<circle cx="213.001" cy="170" r="2" fill="#0E3959"/>
<path d="M63.501 140H46.501C45.9589 140 45.5291 140.457 45.5624 140.998L47.0967 165.93C47.3239 169.622 50.3844 172.5 54.0834 172.5H62.4216C62.8072 172.5 63.1924 172.548 63.5778 172.539C64.6187 172.516 66.001 171.995 66.001 170L66.9789 145.552C66.9936 145.184 67.0452 144.82 67.0812 144.454C67.2539 142.699 66.7407 140 63.501 140Z" fill="#D9D9D9" fill-opacity="0.22"/>
<path d="M44.501 135.5H74.501M44.501 135.5V135.5C43.6725 135.5 43.001 134.828 43.001 134V132.5C43.001 128.9 47.501 129 50.001 129M44.501 135.5L45.501 148.833M74.501 135.5V135.5C75.3294 135.5 76.001 134.828 76.001 134V132.5C76.001 128.9 71.501 129 69.001 129M74.501 135.5L73.501 148.833M50.001 129C50.001 124.6 52.501 124.5 54.001 124.5L58.501 124.5H65.001C66.501 124.5 69.001 124.6 69.001 129M50.001 129L58.501 129L69.001 129M45.501 148.833H73.501M45.501 148.833L46.4135 161M73.501 148.833L72.5885 161M46.4135 161L47.0152 169.024C47.2892 172.676 50.3327 175.5 53.9956 175.5H65.0063C68.6692 175.5 71.7128 172.676 71.9867 169.024L72.5885 161M46.4135 161H72.5885" stroke="#0E3959" stroke-width="2.5"/>
<path d="M74.501 135.5H44.501L45.501 148.833H73.501L74.501 135.5Z" fill="#E4B59B"/>
<path d="M47.0152 169.024C47.2892 172.676 50.3327 175.5 53.9956 175.5H65.0063C68.6692 175.5 71.7128 172.676 71.9867 169.024L72.5885 161H46.4135L47.0152 169.024Z" fill="#E4B59B"/>
<path d="M73.501 148.833H45.501L46.4135 161H72.5885L73.501 148.833Z" fill="#E4B59B"/>
<path d="M73.501 148.833H45.501L46.4135 161H72.5885L73.501 148.833Z" fill="#3589C9"/>
<path d="M44.501 135.5H74.501V135.5C75.3294 135.5 76.001 134.828 76.001 134V132.5C76.001 128.9 71.501 129 69.001 129L58.501 129L50.001 129C47.501 129 43.001 128.9 43.001 132.5V134C43.001 134.828 43.6725 135.5 44.501 135.5V135.5Z" fill="#EEF7FE"/>
<path d="M54.001 124.5C52.501 124.5 50.001 124.6 50.001 129L58.501 129L69.001 129C69.001 124.6 66.501 124.5 65.001 124.5H58.501L54.001 124.5Z" fill="#EEF7FE"/>
<path d="M44.501 135.5H74.501M44.501 135.5V135.5C43.6725 135.5 43.001 134.828 43.001 134V132.5C43.001 128.9 47.501 129 50.001 129M44.501 135.5L45.501 148.833M74.501 135.5V135.5C75.3294 135.5 76.001 134.828 76.001 134V132.5C76.001 128.9 71.501 129 69.001 129M74.501 135.5L73.501 148.833M50.001 129C50.001 124.6 52.501 124.5 54.001 124.5L58.501 124.5H65.001C66.501 124.5 69.001 124.6 69.001 129M50.001 129L58.501 129L69.001 129M45.501 148.833H73.501M45.501 148.833L46.4135 161M73.501 148.833L72.5885 161M46.4135 161L47.0152 169.024C47.2892 172.676 50.3327 175.5 53.9956 175.5H65.0063C68.6692 175.5 71.7128 172.676 71.9867 169.024L72.5885 161M46.4135 161H72.5885" stroke="#0E3959" stroke-width="2.5"/>
<path d="M59.4902 97V97.5M59.4902 121C59.4902 121 59.4902 118.5 59.4902 114C59.4902 109.5 52.9902 109.5 52.9902 103.5M65.9902 109.5V109M65.9902 121V114M52.9902 121V114M59.4902 106.5V101" stroke="#F5FFFF" stroke-width="2.5" stroke-linecap="round"/>
<path fill-rule="evenodd" clip-rule="evenodd" d="M68.001 64C69.1055 64 70.001 63.1046 70.001 62V39.1605H35.001V62C35.001 63.1046 35.8964 64 37.001 64H68.001Z" fill="#F0F0F0"/>
<path d="M70.001 35.199C70.001 34.0944 69.1055 33.199 68.001 33.199H61.251H52.501H43.751H37.001C35.8964 33.199 35.001 34.0944 35.001 35.199V39.1605H70.001V35.199Z" fill="#FF0000"/>
<path d="M70.001 39.1605V35.199C70.001 34.0944 69.1055 33.199 68.001 33.199H61.251M70.001 39.1605V62C70.001 63.1046 69.1055 64 68.001 64H37.001C35.8964 64 35.001 63.1046 35.001 62V39.1605M70.001 39.1605H35.001M35.001 39.1605V35.199C35.001 34.0944 35.8964 33.199 37.001 33.199H43.751M61.251 33.199H52.501H43.751M61.251 33.199H43.751M61.251 33.199V30.2182M43.751 33.199V30.2182M43.751 30.2182V35.6829M43.751 30.2182V30M61.251 30.2182V35.6829M61.251 30.2182V30" stroke="#0E3959" stroke-width="2.5" stroke-linecap="round"/>
<circle cx="43.501" cy="46.5" r="2.5" fill="#98B6D2"/>
<circle cx="52.501" cy="46.5" r="2.5" fill="#98B6D2"/>
<circle cx="61.501" cy="46.5" r="2.5" fill="#98B6D2"/>
<circle cx="43.501" cy="55.5" r="2.5" fill="#98B6D2"/>
<circle cx="52.501" cy="55.5" r="2.5" fill="#98B6D2"/>
<circle cx="61.501" cy="55.5" r="2.5" fill="#98B6D2"/>
<rect x="99.251" y="138.25" width="29.5" height="37.5" rx="1.75" fill="#65859E" stroke="#103C5D" stroke-width="2.5"/>
<rect x="104.251" y="143.25" width="19.5" height="9.5" rx="1.75" fill="#86C763" stroke="#103C5D" stroke-width="2.5"/>
<circle cx="106.501" cy="161.5" r="2.5" fill="#D9D9D9"/>
<circle cx="114.501" cy="161.5" r="2.5" fill="#D9D9D9"/>
<path d="M125.001 165.5C125.001 172 125.001 172 122.501 172C120.001 172 120.001 172 120.001 165.5C120.001 159 120.001 159 122.501 159C125.001 159 125.001 159 125.001 165.5Z" fill="#F34648"/>
<circle cx="106.501" cy="169.5" r="2.5" fill="#D9D9D9"/>
<circle cx="114.501" cy="169.5" r="2.5" fill="#FFD15C"/>
<path d="M105.501 145H123.001M100.001 175H114.001H128.001V139.5" stroke="black" stroke-opacity="0.25" stroke-width="2.5" stroke-linecap="round"/>
<rect x="99.251" y="138.25" width="29.5" height="37.5" rx="1.75" stroke="#103C5D" stroke-width="2.5"/>
<rect x="104.251" y="143.25" width="19.5" height="9.5" rx="1.75" stroke="#103C5D" stroke-width="2.5"/>
<path d="M188.501 175V121H176.501L184.501 130.5V175H188.501Z" fill="#D4E2EB"/>
<path fill-rule="evenodd" clip-rule="evenodd" d="M146.001 124C146.001 122.343 147.344 121 149.001 121H159.501H164.001H176.501L184.501 130.5V175H149.001C147.344 175 146.001 173.657 146.001 172V124Z" fill="#E9F1F4"/>
<path d="M190.001 175C191.658 175 193.001 173.657 193.001 172V124C193.001 122.343 191.658 121 190.001 121H188.501V175H190.001Z" fill="#B0CEE8"/>
<path d="M188.501 121H190.001C191.658 121 193.001 122.343 193.001 124V172C193.001 173.657 191.658 175 190.001 175H188.501M188.501 121V175M188.501 121H176.501M188.501 175H184.501M184.501 175H149.001C147.344 175 146.001 173.657 146.001 172V124C146.001 122.343 147.344 121 149.001 121H159.501M184.501 175V130.5M184.501 130.5L176.501 121M184.501 130.5H179.501C177.844 130.5 176.501 129.157 176.501 127.5V121M176.501 121H164.001M164.001 121V117.25C164.001 116.007 162.994 115 161.751 115V115C160.508 115 159.501 116.007 159.501 117.25V121M164.001 121H159.501M159.501 121V130.75C159.501 131.993 160.508 133 161.751 133V133C162.994 133 164.001 131.993 164.001 130.75V129" stroke="#083459" stroke-width="2.5" stroke-linecap="round"/>
<path d="M153.001 149H162.001M167.001 149H172.501M153.001 155H166.501M171.501 155H176.001M153.001 143H166.501M171.501 143H180.001M153.001 161H171.001" stroke="#556F7C" stroke-width="2.5" stroke-linecap="round"/>
<circle cx="175.001" cy="165" r="5" fill="#F7604B"/>
<path d="M177.501 165C177.501 166.381 176.382 167.5 175.001 167.5C173.62 167.5 172.501 166.381 172.501 165C172.501 163.619 173.62 162.5 175.001 162.5C176.382 162.5 177.501 163.619 177.501 165Z" fill="#F7604B" stroke="#E9F1F4"/>
<path d="M10 174.5H10.8259M14.9557 174.5H21.5632M26.5189 174.5H235.691M240.439 174.5H247.046M251.589 174.5H252.002" stroke="#083459" stroke-width="2.5" stroke-linecap="round" stroke-linejoin="round"/>
</svg>
