<svg width="418" height="120" viewBox="0 0 418 120" fill="none" xmlns="http://www.w3.org/2000/svg">
<path fill-rule="evenodd" clip-rule="evenodd" d="M128 32C128 28.134 124.866 25 121 25H20C16.134 25 13 28.134 13 32V88H128V32Z" fill="#BADFF4"/>
<path d="M13 98C13 101.866 16.134 105 20 105H59.5H82.5H121C124.866 105 128 101.866 128 98V88H13V98Z" fill="#BADFF4"/>
<path d="M13 98C13 101.866 16.134 105 20 105H59.5H82.5H121C124.866 105 128 101.866 128 98V88H13V98Z" fill="#E9F0F8"/>
<path d="M82.5 105H59.5V112.003C59.5 112.334 59.4779 112.666 59.425 112.993C58.9082 116.19 57.9937 118.027 57 118C58.7927 117.998 68.59 117.999 75.5037 117.999C79.3701 118 82.5 114.865 82.5 110.999V105Z" fill="#E9F0F8"/>
<path d="M13 88V98C13 101.866 16.134 105 20 105H59.5M13 88V32C13 28.134 16.134 25 20 25H121C124.866 25 128 28.134 128 32V88M13 88H128M128 88V98C128 101.866 124.866 105 121 105H82.5M59.5 105H82.5M59.5 105V112.003C59.5 112.334 59.4779 112.666 59.425 112.993C58.9082 116.19 57.9937 118.027 57 118C58.7927 117.998 68.59 117.999 75.5037 117.999C79.3701 118 82.5 114.865 82.5 110.999V105" stroke="#A5AFC8" stroke-width="2.5"/>
<path d="M50.5893 82.6796C45.1153 83.2537 41.1506 77.5768 43.5744 72.6352L62.29 34.4791C63.3536 32.3105 65.4601 30.8435 67.863 30.598L70.8338 30.2944C76.3248 29.7333 80.2748 35.4513 77.8066 40.3883L58.7155 78.5758C57.6468 80.7134 55.5614 82.1581 53.1845 82.4074L50.5893 82.6796Z" fill="#BADFF4"/>
<path d="M50.5893 82.6796C45.1153 83.2537 41.1506 77.5768 43.5744 72.6352L62.29 34.4791C63.3536 32.3105 65.4601 30.8435 67.863 30.598L70.8338 30.2944C76.3248 29.7333 80.2748 35.4513 77.8066 40.3883L58.7155 78.5758C57.6468 80.7134 55.5614 82.1581 53.1845 82.4074L50.5893 82.6796Z" fill="white" fill-opacity="0.2"/>
<path d="M87.0807 37.5722C85.4828 37.6935 84.0697 38.6548 83.37 40.0966L70.8106 65.9749C69.3459 68.9929 71.7142 72.4604 75.0584 72.1938V72.1938C76.5737 72.073 77.9153 71.1679 78.5947 69.8081L91.4505 44.0757C93.0138 40.9465 90.5687 37.3074 87.0807 37.5722V37.5722Z" fill="#BADFF4"/>
<path d="M87.0807 37.5722C85.4828 37.6935 84.0697 38.6548 83.37 40.0966L70.8106 65.9749C69.3459 68.9929 71.7142 72.4604 75.0584 72.1938V72.1938C76.5737 72.073 77.9153 71.1679 78.5947 69.8081L91.4505 44.0757C93.0138 40.9465 90.5687 37.3074 87.0807 37.5722V37.5722Z" fill="white" fill-opacity="0.2"/>
<circle cx="70.5" cy="96.5" r="3.5" fill="#D1E2EC"/>
<path d="M60.5 107H73" stroke="#C1C7CF" stroke-width="2.5"/>
<circle cx="290" cy="27" r="16.75" fill="#D9D9D9" stroke="#0A3A5E" stroke-width="2.5"/>
<circle cx="290" cy="27" r="16" fill="#D34E5F"/>
<circle cx="290" cy="27" r="12.75" fill="#E6F0F2" stroke="#0E355C" stroke-width="2.5"/>
<circle cx="278" cy="27" r="2" fill="#0E355C"/>
<circle cx="302" cy="27" r="2" fill="#0E355C"/>
<circle cx="290" cy="39" r="2" fill="#0E355C"/>
<path d="M290 19V27L293 29" stroke="#0E355C" stroke-width="2.5" stroke-linecap="round"/>
<circle cx="290" cy="48" r="2" fill="#0E355C"/>
<circle cx="290" cy="55" r="2" fill="#0E355C"/>
<circle cx="290" cy="62" r="2" fill="#0E355C"/>
<path fill-rule="evenodd" clip-rule="evenodd" d="M233 109C235.209 109 237 107.209 237 105V65H175V105C175 107.209 176.791 109 179 109H233Z" fill="#AABAC9"/>
<path d="M237 62C237 59.7909 235.209 58 233 58H179C176.791 58 175 59.7909 175 62V65H237V62Z" fill="#E8EFF7"/>
<path d="M175 65V105C175 107.209 176.791 109 179 109H233C235.209 109 237 107.209 237 105V65M175 65V62C175 59.7909 176.791 58 179 58H233C235.209 58 237 59.7909 237 62V65M175 65H237M179 61.5H179.5M183.5 61.5H184M188 61.5H188.5" stroke="#A7AFC6" stroke-width="2.5" stroke-linecap="round"/>
<path d="M175 71C175 68.2386 177.239 66 180 66H188.5V108H181C177.686 108 175 105.314 175 102V71Z" fill="white"/>
<path d="M194.5 71H205M218.5 71H229.5M202 77H220.5M191.5 82.5H205.5M215.5 89.5H230.5M191.5 91.5C192.3 91.5 196.833 91.5 199 91.5M191.5 99H210.5M207.5 104H226.5M188.5 66H180C177.239 66 175 68.2386 175 71V102C175 105.314 177.686 108 181 108H188.5V66Z" stroke="white" stroke-width="2.5" stroke-linecap="round"/>
<path d="M175 65V105C175 107.209 176.791 109 179 109H233C235.209 109 237 107.209 237 105V65M175 65V62C175 59.7909 176.791 58 179 58H233C235.209 58 237 59.7909 237 62V65M175 65H237M179.5 70H186M179.5 75H186M179.5 80.5H186M179.5 86H186" stroke="#A7AFC6" stroke-width="2.5" stroke-linecap="round"/>
<path d="M325.5 55H297H294.5H266M325.5 55V45.5C325.5 37 333 37 334.5 37C336 37 343 37 343.5 45.5V76.5V107.5M325.5 55V102.5V107.5M343.5 107.5C343.5 115.5 338.833 117.5 336.5 117.5M343.5 107.5C343.5 100.5 335.5 100 335 100M335 100V108C335 111.5 333 113 330 113C327.019 113 325.5 111 325.5 107.5M335 100C329 100 325.5 104 325.5 107.5M266 55V45.5C266 37 258.5 37 257 37C255.5 37 248.5 37 248 45.5V76.5V107.5M266 55V102.5V107.5M248 107.5C248 115.5 252.667 117.5 255 117.5M248 107.5C248 100.5 256 100 256.5 100M256.5 100V108C256.5 111.5 258.5 113 261.5 113C264.481 113 266 111 266 107.5M256.5 100C262.5 100 266 104 266 107.5" stroke="#083459" stroke-width="2.5" stroke-linecap="round" stroke-linejoin="round"/>
<path d="M325.5 55H297H294.5H266V102.5V107.5C266 111 264.481 113 261.5 113C258.5 113 256.5 111.5 256.5 108V100C256 100 248 100.5 248 107.5C248 115.5 252.667 117.5 255 117.5H336.5C338.833 117.5 343.5 115.5 343.5 107.5C343.5 100.5 335.5 100 335 100V108C335 111.5 333 113 330 113C327.019 113 325.5 111 325.5 107.5V102.5V55Z" fill="#E8F1F8"/>
<path d="M325.5 45.5V55V102.5V107.5C325.5 104 329 100 335 100C335.5 100 343.5 100.5 343.5 107.5V76.5V45.5C343 37 336 37 334.5 37C333 37 325.5 37 325.5 45.5Z" fill="#E8F1F8"/>
<path d="M335 108V100C329 100 325.5 104 325.5 107.5C325.5 111 327.019 113 330 113C333 113 335 111.5 335 108Z" fill="#9D9FAD"/>
<path d="M266 55V45.5C266 37 258.5 37 257 37C255.5 37 248.5 37 248 45.5V76.5V107.5C248 100.5 256 100 256.5 100C262.5 100 266 104 266 107.5V102.5V55Z" fill="#E8F1F8"/>
<path d="M256.5 100V108C256.5 111.5 258.5 113 261.5 113C264.481 113 266 111 266 107.5C266 104 262.5 100 256.5 100Z" fill="#9D9FAD"/>
<path d="M325.5 55H297H294.5H266M325.5 55V45.5C325.5 37 333 37 334.5 37C336 37 343 37 343.5 45.5V76.5V107.5M325.5 55V102.5V107.5M343.5 107.5C343.5 115.5 338.833 117.5 336.5 117.5H255C252.667 117.5 248 115.5 248 107.5M343.5 107.5C343.5 100.5 335.5 100 335 100M335 100V108C335 111.5 333 113 330 113C327.019 113 325.5 111 325.5 107.5M335 100C329 100 325.5 104 325.5 107.5M266 55V45.5C266 37 258.5 37 257 37C255.5 37 248.5 37 248 45.5V76.5V107.5M266 55V102.5V107.5M248 107.5C248 100.5 256 100 256.5 100M256.5 100V108C256.5 111.5 258.5 113 261.5 113C264.481 113 266 111 266 107.5M256.5 100C262.5 100 266 104 266 107.5" stroke="#083459" stroke-width="2.5" stroke-linecap="round" stroke-linejoin="round"/>
<path d="M262 101.5L261.5 39C263 38.6667 264.5 40.5 266 44V55H271.5V110C271.5 112.333 270.1 117 264.5 117H259C258.333 117 257 116.8 257 116C257 115 256.5 113 257 112.5C257.5 112 258 112.5 259 112.5C260 112.5 260.5 113 261 113C261.4 113 262.5 112.667 263 112.5L264.5 111.5L266 108.5C266.4 107.7 266.166 106.833 266 106.5C265.666 105.833 264.9 104.4 264.5 104C264.1 103.6 264 102.833 264 102.5L262 101.5Z" fill="black" fill-opacity="0.09"/>
<path d="M339.5 101V39C340.833 39.5 343.5 41.6 343.5 46V99V107.5L343 112.5L341 114.5C340.833 115 340.3 116 339.5 116C338.7 116 338.167 116.667 338 117C338 117 337.13 116.815 336.5 116.5C335.5 116 334.888 115.396 334.5 114.5C334.19 113.783 334.5 112.5 334.5 112.5V109V100H336.5L339.5 101Z" fill="black" fill-opacity="0.09"/>
<path d="M297.5 62.5H311M315.5 62.5H318.5M309.5 68.5H312.5M297.5 68.5H305M277 88H284M288 88H292" stroke="#B0C8E0" stroke-width="2.5" stroke-linecap="round" stroke-linejoin="round"/>
<path d="M305.5 115C305.5 116.105 306.395 117 307.5 117H312.5C313.605 117 314.5 116.105 314.5 115V110.586H305.5V115Z" fill="#CF1616"/>
<path d="M314.5 81.7241C313 80.6552 309.1 79.1586 305.5 81.7241V110.586H314.5V81.7241Z" fill="#CF1616"/>
<path d="M314.5 81.7241C313 80.6552 309.1 79.1586 305.5 81.7241V110.586H314.5V81.7241Z" fill="#F6B446"/>
<path d="M311.856 75.1302C311.185 73.4559 308.815 73.4559 308.144 75.1302L305.5 81.7241C309.1 79.1586 313 80.6552 314.5 81.7241L311.856 75.1302Z" fill="#E4B59B"/>
<path d="M305.5 81.7241L308.144 75.1302C308.815 73.4559 311.185 73.4559 311.856 75.1302L314.5 81.7241M305.5 81.7241C309.1 79.1586 313 80.6552 314.5 81.7241M305.5 81.7241V110.586M314.5 81.7241V110.586M305.5 110.586V115C305.5 116.105 306.395 117 307.5 117H312.5C313.605 117 314.5 116.105 314.5 115V110.586M305.5 110.586H314.5" stroke="#083459" stroke-width="2.5" stroke-linecap="round" stroke-linejoin="round"/>
<path d="M310 115V75.3103C310 75.0152 310.239 74.7759 310.534 74.7759H311.163C311.663 74.7759 312.107 75.0957 312.265 75.5701L314.397 81.9501C314.465 82.1544 314.5 82.3685 314.5 82.5839V115C314.5 116.105 313.605 117 312.5 117H312C310.895 117 310 116.105 310 115Z" fill="black" fill-opacity="0.13"/>
<path d="M305.5 81.7241L310 70C310 70 312.743 77.3408 314.5 81.7241M305.5 81.7241C309.1 79.1586 313 80.6552 314.5 81.7241M305.5 81.7241V110.586M314.5 81.7241C314.5 92.9955 314.5 110.586 314.5 110.586M305.5 110.586V117H314.5V110.586M305.5 110.586H314.5" stroke="#083459" stroke-width="2.5" stroke-linecap="round" stroke-linejoin="round"/>
<path fill-rule="evenodd" clip-rule="evenodd" d="M284.5 110.5C288.918 110.5 292.5 106.918 292.5 102.5H284.5V94.5C280.082 94.5 276.5 98.0817 276.5 102.5C276.5 106.918 280.082 110.5 284.5 110.5Z" fill="#F6B446"/>
<path d="M293.5 101.5C293.5 97.0817 289.918 93.5 285.5 93.5V101.5H293.5Z" fill="#EE751A"/>
<path d="M277.5 81.5V80.5M283.5 81.5V80.5M289.5 81.5V80.5" stroke="#EA4549" stroke-width="2.5"/>
<path d="M277 62.5V77.5M283 71.5V77.5M289 65.5V77.5" stroke="#EA4549" stroke-width="2.5"/>
<path d="M163 78C163 76.3431 161.657 75 160 75H142C140.343 75 139 76.3431 139 78V81H151H163V78Z" fill="#60859F"/>
<path d="M139 114C139 115.657 140.343 117 142 117H160C161.657 117 163 115.657 163 114V107.5H151H139V114Z" fill="#60859F"/>
<path d="M163 81H151H139V107.5H151H163V81Z" fill="#60859F"/>
<path d="M163 81H151H139V107.5H151H163V81Z" fill="black" fill-opacity="0.2"/>
<path d="M163 81V78C163 76.3431 161.657 75 160 75H142C140.343 75 139 76.3431 139 78V81M163 81V107.5M163 81H151H139M139 81V107.5M163 107.5V114C163 115.657 161.657 117 160 117H142C140.343 117 139 115.657 139 114V107.5M163 107.5H151H139" stroke="#0E3959" stroke-width="2.5"/>
<circle cx="151" cy="113" r="2" fill="#0E3959"/>
<path d="M91.5 82H74.5C73.9579 82 73.5281 82.4571 73.5614 82.9981L75.0957 107.93C75.3229 111.622 78.3834 114.5 82.0825 114.5H90.4207C90.8062 114.5 91.1914 114.548 91.5769 114.539C92.6177 114.516 94 113.995 94 112L94.9779 87.5517C94.9926 87.1845 95.0443 86.8202 95.0803 86.4545C95.2529 84.6995 94.7397 82 91.5 82Z" fill="#D9D9D9" fill-opacity="0.22"/>
<path d="M72.5 77.5001H102.5M72.5 77.5001V77.5001C71.6716 77.5001 71 76.8285 71 76.0001V74.5001C71 70.9001 75.5 71 78 71.0001M72.5 77.5001L73.5 90.8334M102.5 77.5001V77.5001C103.328 77.5 104 76.8284 104 76V74.5C104 70.9 99.5 71 97 71M102.5 77.5001L101.5 90.8334M78 71.0001C78 66.6001 80.5 66.5 82 66.5001L86.5 66.5H93C94.5 66.5 97 66.6 97 71M78 71.0001L86.5 71L97 71M73.5 90.8334H101.5M73.5 90.8334L74.4125 103M101.5 90.8334L100.588 103M74.4125 103L75.0143 111.024C75.2882 114.676 78.3318 117.5 81.9947 117.5H93.0053C96.6682 117.5 99.7118 114.676 99.9857 111.024L100.588 103M74.4125 103H100.588" stroke="#0E3959" stroke-width="2.5"/>
<path d="M102.5 77.5001H72.5L73.5 90.8334H101.5L102.5 77.5001Z" fill="#E4B59B"/>
<path d="M75.0143 111.024C75.2882 114.676 78.3318 117.5 81.9947 117.5H93.0053C96.6682 117.5 99.7118 114.676 99.9857 111.024L100.588 103H74.4125L75.0143 111.024Z" fill="#E4B59B"/>
<path d="M101.5 90.8334H73.5L74.4125 103H100.588L101.5 90.8334Z" fill="#E4B59B"/>
<path d="M101.5 90.8334H73.5L74.4125 103H100.588L101.5 90.8334Z" fill="#3589C9"/>
<path d="M72.5 77.5001H102.5V77.5001C103.328 77.5 104 76.8284 104 76V74.5C104 70.9 99.5 71 97 71L86.5 71L78 71.0001C75.5 71 71 70.9001 71 74.5001V76.0001C71 76.8285 71.6716 77.5001 72.5 77.5001V77.5001Z" fill="#EEF7FE"/>
<path d="M82 66.5001C80.5 66.5 78 66.6001 78 71.0001L86.5 71L97 71C97 66.6 94.5 66.5 93 66.5H86.5L82 66.5001Z" fill="#EEF7FE"/>
<path d="M72.5 77.5001H102.5M72.5 77.5001V77.5001C71.6716 77.5001 71 76.8285 71 76.0001V74.5001C71 70.9001 75.5 71 78 71.0001M72.5 77.5001L73.5 90.8334M102.5 77.5001V77.5001C103.328 77.5 104 76.8284 104 76V74.5C104 70.9 99.5 71 97 71M102.5 77.5001L101.5 90.8334M78 71.0001C78 66.6001 80.5 66.5 82 66.5001L86.5 66.5H93C94.5 66.5 97 66.6 97 71M78 71.0001L86.5 71L97 71M73.5 90.8334H101.5M73.5 90.8334L74.4125 103M101.5 90.8334L100.588 103M74.4125 103L75.0143 111.024C75.2882 114.676 78.3318 117.5 81.9947 117.5H93.0053C96.6682 117.5 99.7118 114.676 99.9857 111.024L100.588 103M74.4125 103H100.588" stroke="#0E3959" stroke-width="2.5"/>
<path d="M87.4893 39V39.5M87.4893 63C87.4893 63 87.4893 60.5 87.4893 56C87.4893 51.5 80.9893 51.5 80.9893 45.5M93.9893 51.5V51M93.9893 63V56M80.9893 63V56M87.4893 48.5V43" stroke="#F5FFFF" stroke-width="2.5" stroke-linecap="round"/>
<path fill-rule="evenodd" clip-rule="evenodd" d="M178 50C179.105 50 180 49.1046 180 48V25.1605H145V48C145 49.1046 145.895 50 147 50H178Z" fill="#F0F0F0"/>
<path d="M180 21.199C180 20.0944 179.105 19.199 178 19.199H171.25H162.5H153.75H147C145.895 19.199 145 20.0944 145 21.199V25.1605H180V21.199Z" fill="#FF0000"/>
<path d="M180 25.1605V21.199C180 20.0944 179.105 19.199 178 19.199H171.25M180 25.1605V48C180 49.1046 179.105 50 178 50H147C145.895 50 145 49.1046 145 48V25.1605M180 25.1605H145M145 25.1605V21.199C145 20.0944 145.895 19.199 147 19.199H153.75M171.25 19.199H162.5H153.75M171.25 19.199H153.75M171.25 19.199V16.2182M153.75 19.199V16.2182M153.75 16.2182V21.6829M153.75 16.2182V16M171.25 16.2182V21.6829M171.25 16.2182V16" stroke="#0E3959" stroke-width="2.5" stroke-linecap="round"/>
<circle cx="153.5" cy="32.5" r="2.5" fill="#98B6D2"/>
<circle cx="162.5" cy="32.5" r="2.5" fill="#98B6D2"/>
<circle cx="171.5" cy="32.5" r="2.5" fill="#98B6D2"/>
<circle cx="153.5" cy="41.5" r="2.5" fill="#98B6D2"/>
<circle cx="162.5" cy="41.5" r="2.5" fill="#98B6D2"/>
<circle cx="171.5" cy="41.5" r="2.5" fill="#98B6D2"/>
<rect x="356.25" y="77.25" width="29.5" height="37.5" rx="1.75" fill="#65859E" stroke="#103C5D" stroke-width="2.5"/>
<rect x="361.25" y="82.25" width="19.5" height="9.5" rx="1.75" fill="#86C763" stroke="#103C5D" stroke-width="2.5"/>
<circle cx="363.5" cy="100.5" r="2.5" fill="#D9D9D9"/>
<circle cx="371.5" cy="100.5" r="2.5" fill="#D9D9D9"/>
<path d="M382 104.5C382 111 382 111 379.5 111C377 111 377 111 377 104.5C377 98 377 98 379.5 98C382 98 382 98 382 104.5Z" fill="#F34648"/>
<circle cx="363.5" cy="108.5" r="2.5" fill="#D9D9D9"/>
<circle cx="371.5" cy="108.5" r="2.5" fill="#FFD15C"/>
<path d="M362.5 84H380M357 114H371H385V78.5" stroke="black" stroke-opacity="0.25" stroke-width="2.5" stroke-linecap="round"/>
<rect x="356.25" y="77.25" width="29.5" height="37.5" rx="1.75" stroke="#103C5D" stroke-width="2.5"/>
<rect x="361.25" y="82.25" width="19.5" height="9.5" rx="1.75" stroke="#103C5D" stroke-width="2.5"/>
<path d="M401.5 62V8H389.5L397.5 17.5V62H401.5Z" fill="#D4E2EB"/>
<path fill-rule="evenodd" clip-rule="evenodd" d="M359 11C359 9.34315 360.343 8 362 8H372.5H377H389.5L397.5 17.5V62H362C360.343 62 359 60.6569 359 59V11Z" fill="#E9F1F4"/>
<path d="M403 62C404.657 62 406 60.6569 406 59V11C406 9.34315 404.657 8 403 8H401.5V62H403Z" fill="#B0CEE8"/>
<path d="M401.5 8H403C404.657 8 406 9.34315 406 11V59C406 60.6569 404.657 62 403 62H401.5M401.5 8V62M401.5 8H389.5M401.5 62H397.5M397.5 62H362C360.343 62 359 60.6569 359 59V11C359 9.34315 360.343 8 362 8H372.5M397.5 62V17.5M397.5 17.5L389.5 8M397.5 17.5H392.5C390.843 17.5 389.5 16.1569 389.5 14.5V8M389.5 8H377M377 8V4.25C377 3.00736 375.993 2 374.75 2V2C373.507 2 372.5 3.00736 372.5 4.25V8M377 8H372.5M372.5 8V17.75C372.5 18.9926 373.507 20 374.75 20V20C375.993 20 377 18.9926 377 17.75V16" stroke="#083459" stroke-width="2.5" stroke-linecap="round"/>
<path d="M366 36H375M380 36H385.5M366 42H379.5M384.5 42H389M366 30H379.5M384.5 30H393M366 48H384" stroke="#556F7C" stroke-width="2.5" stroke-linecap="round"/>
<circle cx="388" cy="52" r="5" fill="#F7604B"/>
<path d="M390.5 52C390.5 53.3807 389.381 54.5 388 54.5C386.619 54.5 385.5 53.3807 385.5 52C385.5 50.6193 386.619 49.5 388 49.5C389.381 49.5 390.5 50.6193 390.5 52Z" fill="#F7604B" stroke="#E9F1F4"/>
<path d="M219.5 24C215.916 24 212.789 27.0961 213.011 30.2222C213.099 31.455 213.51 32.1667 214.302 33.2195C216.229 35.782 216.743 37.2135 216.971 40.5344H220.855C220.855 36.0556 224.491 32.1667 224.491 30.2222C224.491 28.6667 223.892 24.9333 219.5 24Z" fill="#F6B446"/>
<path d="M225.989 30.2222C226.211 27.0961 223.084 24 219.5 24C223.892 24.9333 224.491 28.6667 224.491 30.2222C224.491 32.1667 220.855 36.0556 220.855 40.5344H222.029C222.257 37.2135 222.773 35.7827 224.698 33.2195C225.489 32.1667 225.901 31.455 225.989 30.2222Z" fill="#F6B446"/>
<path d="M225.989 30.2222C226.211 27.0961 223.084 24 219.5 24C223.892 24.9333 224.491 28.6667 224.491 30.2222C224.491 32.1667 220.855 36.0556 220.855 40.5344H222.029C222.257 37.2135 222.773 35.7827 224.698 33.2195C225.489 32.1667 225.901 31.455 225.989 30.2222Z" fill="black" fill-opacity="0.2"/>
<path fill-rule="evenodd" clip-rule="evenodd" d="M220.855 42.2778H217.004V41.5C217.004 41.1684 216.993 40.8467 216.971 40.5344H220.855V42.2778Z" fill="#0E355C"/>
<path fill-rule="evenodd" clip-rule="evenodd" d="M220.855 45H220.5H218.5H218.003C217.451 45 217.004 44.6518 217.004 44.2222V42.2778H220.855V45Z" fill="#E9F1F4"/>
<path d="M221.996 41.5C221.996 41.1684 222.007 40.8467 222.029 40.5344H220.855V42.2778H221.996V41.5Z" fill="#0E355C"/>
<path d="M221.996 41.5C221.996 41.1684 222.007 40.8467 222.029 40.5344H220.855V42.2778H221.996V41.5Z" fill="black" fill-opacity="0.2"/>
<path d="M220.997 45C221.549 45 221.996 44.6518 221.996 44.2222V42.2778H220.855V45H220.997Z" fill="#E9F1F4"/>
<path d="M220.997 45C221.549 45 221.996 44.6518 221.996 44.2222V42.2778H220.855V45H220.997Z" fill="black" fill-opacity="0.2"/>
<path d="M220.5 45H218.5V45C218.5 45.2761 218.724 45.5 219 45.5H220C220.276 45.5 220.5 45.2761 220.5 45V45Z" fill="#0E3959"/>
<path d="M2 118H3.41297M10.4778 118H21.7816M30.2594 118H388.096M396.218 118H407.522M415.294 118H416" stroke="#083459" stroke-width="2.5" stroke-linecap="round" stroke-linejoin="round"/>
</svg>
